<svg width="631" height="234" viewBox="0 0 631 234" fill="none" xmlns="http://www.w3.org/2000/svg">
<rect width="631" height="233.77" rx="32" fill="#D9D9D9" fill-opacity="0.1"/>
<path d="M351.73 66H278.27C274.485 66 270.856 67.5026 268.18 70.1772C265.503 72.8518 264 76.4793 264 80.2617V153.738C264.011 157.517 265.517 161.139 268.191 163.811C270.865 166.484 274.488 167.989 278.27 168H351.73C355.511 167.989 359.135 166.484 361.809 163.811C364.483 161.139 365.989 157.517 366 153.738V80.2617C366 78.3889 365.631 76.5343 364.914 74.804C364.197 73.0737 363.145 71.5015 361.82 70.1772C360.495 68.8528 358.922 67.8023 357.191 67.0856C355.46 66.3689 353.604 66 351.73 66ZM269.708 80.2617C269.708 77.9923 270.61 75.8158 272.216 74.211C273.821 72.6062 275.999 71.7047 278.27 71.7047H351.73C354.001 71.7047 356.179 72.6062 357.784 74.211C359.39 75.8158 360.292 77.9923 360.292 80.2617V129.664L338.145 107.53C336.533 105.942 334.359 105.051 332.095 105.051C329.831 105.051 327.657 105.942 326.045 107.53L300.017 133.601C299.472 134.123 298.746 134.415 297.99 134.415C297.235 134.415 296.509 134.123 295.964 133.601L292.768 130.406C291.148 128.831 288.977 127.95 286.717 127.95C284.457 127.95 282.287 128.831 280.667 130.406L269.708 141.359V80.2617ZM360.292 153.738C360.292 156.008 359.39 158.184 357.784 159.789C356.179 161.394 354.001 162.295 351.73 162.295H278.27C275.999 162.295 273.821 161.394 272.216 159.789C270.61 158.184 269.708 156.008 269.708 153.738V149.46L284.748 134.456C285.284 133.94 286.001 133.653 286.746 133.658C287.508 133.65 288.244 133.936 288.801 134.456L291.94 137.651C293.553 139.24 295.726 140.13 297.99 140.13C300.255 140.13 302.428 139.24 304.041 137.651L330.126 111.581C330.391 111.313 330.707 111.101 331.055 110.956C331.402 110.811 331.775 110.737 332.152 110.737C332.529 110.737 332.902 110.811 333.25 110.956C333.597 111.101 333.913 111.313 334.178 111.581L360.321 137.708L360.292 153.738Z" fill="white" fill-opacity="0.21"/>
<path d="M292.522 108.814C289.7 108.814 286.941 107.977 284.594 106.41C282.248 104.843 280.419 102.616 279.339 100.01C278.259 97.4035 277.976 94.536 278.527 91.7695C279.077 89.003 280.436 86.4618 282.432 84.4672C284.428 82.4727 286.97 81.1144 289.738 80.5641C292.506 80.0138 295.375 80.2962 297.983 81.3757C300.59 82.4551 302.819 84.2831 304.387 86.6284C305.955 88.9737 306.792 91.7311 306.792 94.5518C306.792 98.3342 305.288 101.962 302.612 104.636C299.936 107.311 296.307 108.814 292.522 108.814ZM292.522 85.9947C290.829 85.9947 289.173 86.4966 287.765 87.4369C286.357 88.3771 285.26 89.7136 284.612 91.2772C283.964 92.8407 283.794 94.5613 284.125 96.2212C284.455 97.8811 285.271 99.4058 286.468 100.603C287.665 101.799 289.191 102.614 290.852 102.944C292.513 103.275 294.234 103.105 295.799 102.457C297.363 101.81 298.7 100.713 299.641 99.3058C300.582 97.8986 301.084 96.2442 301.084 94.5518C301.084 92.2823 300.182 90.1058 298.576 88.501C296.971 86.8963 294.793 85.9947 292.522 85.9947Z" fill="white" fill-opacity="0.21"/>
</svg>
