<svg width="54" height="54" viewBox="0 0 54 54" fill="none" xmlns="http://www.w3.org/2000/svg">
<path d="M18 47.25C16.7625 47.25 15.7035 46.8097 14.823 45.9292C13.9425 45.0488 13.5015 43.989 13.5 42.75V38.25H9C7.7625 38.25 6.7035 37.8097 5.823 36.9293C4.9425 36.0487 4.5015 34.989 4.5 33.75V24.75C4.5 22.8375 5.15625 21.2347 6.46875 19.9417C7.78125 18.6487 9.375 18.0015 11.25 18H42.75C44.6625 18 46.266 18.6473 47.5605 19.9417C48.855 21.2362 49.5015 22.839 49.5 24.75V33.75C49.5 34.9875 49.0597 36.0473 48.1792 36.9293C47.2988 37.8113 46.239 38.2515 45 38.25H40.5V42.75C40.5 43.9875 40.0597 45.0472 39.1792 45.9292C38.2988 46.8112 37.239 47.2515 36 47.25H18ZM40.5 15.75H13.5V11.25C13.5 10.0125 13.941 8.9535 14.823 8.073C15.705 7.1925 16.764 6.7515 18 6.75H36C37.2375 6.75 38.2972 7.191 39.1792 8.073C40.0612 8.955 40.5015 10.014 40.5 11.25V15.75ZM40.5 28.125C41.1375 28.125 41.6722 27.909 42.1042 27.477C42.5362 27.045 42.7515 26.511 42.75 25.875C42.7485 25.239 42.5325 24.705 42.102 24.273C41.6715 23.841 41.1375 23.625 40.5 23.625C39.8625 23.625 39.3285 23.841 38.898 24.273C38.4675 24.705 38.2515 25.239 38.25 25.875C38.2485 26.511 38.4645 27.0458 38.898 27.4792C39.3315 27.9128 39.8655 28.128 40.5 28.125ZM18 42.75H36V33.75H18V42.75Z" fill="white"/>
</svg>
